
<svg width="100" height="100" viewBox="0 0 100 100" fill="none" xmlns="http://www.w3.org/2000/svg">
    <path d="M85.8509 39L86.8241 40.7048L88.9998 40.9778L87.4257 42.3048L87.7973 44.1777L85.8509 43.2934L83.9044 44.1777L84.2761 42.3048L82.7019 40.9778L84.8776 40.7048L85.8509 39Z" fill="#EEEEEE"/>
    <path d="M86.0249 47.2468L86.7449 48.5079L86.7697 48.5513L86.8193 48.5575L88.3967 48.7558L87.2656 49.7088L87.2205 49.7469L87.232 49.8048L87.5026 51.1669L86.0662 50.5137L86.0249 50.4949L85.9835 50.5137L84.547 51.1669L84.8171 49.8047L84.8286 49.7469L84.7835 49.7088L83.6529 48.7558L85.2304 48.5575L85.28 48.5513L85.3048 48.5079L86.0249 47.2468Z" fill="#EEEEEE" stroke="black" stroke-width="0.2"/>
    <path d="M84.5117 54.0795L85.0929 55.0967L86.3915 55.2601L85.4519 56.0515L85.6735 57.1699L84.5117 56.6421L83.3506 57.1699L83.5722 56.0515L82.6326 55.2601L83.9312 55.0967L84.5117 54.0795Z" fill="#212529"/>
    <path d="M14.149 39.0671L13.1758 40.7719L11 41.0449L12.5742 42.3718L12.2026 44.2448L14.149 43.3605L16.0954 44.2448L15.7238 42.3718L17.2979 41.0449L15.1222 40.7719L14.149 39.0671Z" fill="#EEEEEE"/>
    <path d="M13.5415 48.6245L13.591 48.6183L13.6158 48.5749L14.3359 47.3139L15.056 48.5749L15.0807 48.6183L15.1303 48.6245L16.7079 48.8228L15.5773 49.7759L15.5321 49.8139L15.5436 49.8718L15.8137 51.2339L14.3773 50.5807L14.3359 50.5619L14.2945 50.5807L12.8582 51.2338L13.1288 49.8718L13.1403 49.8139L13.0951 49.7758L11.964 48.8228L13.5415 48.6245Z" fill="#EEEEEE" stroke="#212529" stroke-width="0.2"/>
    <path d="M16.0285 54.1464L15.4474 55.1636L14.1487 55.327L15.0883 56.1185L14.8668 57.2369L16.0285 56.7091L17.1897 57.2369L16.9681 56.1185L17.9077 55.327L16.6091 55.1636L16.0285 54.1464Z" fill="#212529"/>
    <circle cx="50" cy="50" r="48.5" transform="rotate(90 50 50)" stroke="url(#paint0_linear_28_65)" stroke-width="3"/>
    <path d="M94.0002 50.0002C94.0002 61.6698 89.3645 72.8613 81.1129 81.1129C72.8613 89.3645 61.6698 94.0002 50.0002 94.0002C38.3307 94.0002 27.1391 89.3645 18.8875 81.1129C10.6359 72.8613 6.00025 61.6698 6.00024 50.0002" stroke="#212529" stroke-width="2"/>
    <path d="M6.00024 50.0002C6.00024 44.2221 7.13834 38.5005 9.34954 33.1622C11.5607 27.8238 14.8018 22.9733 18.8875 18.8875C22.9733 14.8018 27.8238 11.5608 33.1622 9.34954C38.5005 7.13834 44.2221 6.00024 50.0002 6.00024C55.7784 6.00024 61.5 7.13834 66.8383 9.34954C72.1766 11.5607 77.0271 14.8018 81.1129 18.8875C85.1987 22.9733 88.4397 27.8238 90.6509 33.1622C92.8621 38.5005 94.0002 44.2221 94.0002 50.0002" stroke="#EEEEEE" stroke-width="2"/>
    <ellipse cx="49.9998" cy="50.0003" rx="30" ry="30" transform="rotate(-90 49.9998 50.0003)" fill="url(#paint1_linear_28_65)"/>
    <mask id="mask0_28_65" style="mask-type:alpha" maskUnits="userSpaceOnUse" x="19" y="19" width="61" height="61">
        <ellipse cx="49.9998" cy="49.9998" rx="30" ry="30" fill="#C4C4C4"/>
    </mask>
    <g mask="url(#mask0_28_65)">
        <path d="M51.1855 36.499C51.6877 35.2792 52.4441 34.2174 53.3861 33.2875C54.3685 32.3178 55.3898 31.3853 56.3933 30.436C56.4407 30.391 56.4828 30.3402 56.5243 30.2952C56.2174 29.8603 56.1661 29.8839 55.8154 30.2486C55.1821 30.9075 54.5099 31.5318 53.8527 32.1692C53.2933 32.7119 52.7403 33.2613 52.1684 33.7914C51.5259 34.3875 50.8661 34.9663 50.2138 35.5524C50.0277 35.3677 49.8416 35.1834 49.6554 34.9992C50.2764 34.4053 50.8963 33.8103 51.5178 33.2174C53.0187 31.7856 54.5153 30.3496 56.0253 28.9273C56.2972 28.6709 56.6117 28.4505 56.9295 28.2475C57.5721 27.8367 58.2324 27.9225 58.6095 28.617C58.8501 29.0602 59.0627 29.5244 59.2262 29.9995C60.3267 33.1933 61.7974 36.2138 63.6592 39.0575C64.2154 39.9068 64.7264 40.7834 65.2912 41.7018C65.8987 41.3643 66.4792 40.9969 67.098 40.708C68.3459 40.1256 69.2064 39.0784 70.2837 38.294C70.7197 37.9769 71.168 37.6624 71.6514 37.4248C71.8936 37.306 72.2389 37.3008 72.5178 37.3499C73.7721 37.5692 74.6763 38.2888 75.4036 39.2799C76.3963 40.6316 77.0339 42.1529 77.7018 43.6605C78.1173 44.5973 78.4879 45.5534 78.9287 46.478C79.1078 46.8548 79.4121 47.1772 79.6721 47.5158C81.2302 49.5441 82.7926 51.5693 84.3512 53.5971C84.6031 53.9247 84.8443 54.2602 85.0061 54.4779C85.5456 54.0226 86.056 53.5689 86.5917 53.1466C87.0352 52.797 87.4975 52.4668 87.9739 52.1607C88.3726 51.9037 88.5528 51.9534 88.8382 52.3114C89.6501 53.3308 90.4934 54.3245 91.5788 55.087C92.12 55.4675 92.6546 55.8814 93.2529 56.1551C94.5132 56.7312 94.9081 57.7554 95.0187 58.9846C95.0667 59.5184 95.1692 60.048 95.2561 60.6435C94.8104 60.8863 94.2796 61.1825 93.7395 61.4635C93.6521 61.5091 93.5264 61.4949 93.4185 61.4934C92.475 61.4818 91.5314 61.4792 90.5889 61.4421C90.4011 61.4347 90.1993 61.3181 90.0386 61.2055C89.2207 60.633 88.4125 60.0485 87.6054 59.4629C86.8874 58.9412 86.1752 58.4121 85.428 57.8626C85.0439 58.287 84.6279 58.8077 84.1462 59.2635C83.3758 59.993 82.5676 60.6859 81.7594 61.3767C81.6316 61.4855 81.4185 61.5012 81.2437 61.5577C81.2188 61.5656 81.1897 61.5598 81.1622 61.5598C80.2753 61.5687 79.2971 61.8743 78.7954 60.8183C78.7134 60.8628 78.6961 60.8664 78.6907 60.8764C78.2581 61.6462 77.5459 61.7822 76.7216 61.7398C76.0154 61.7032 75.3054 61.732 74.5728 61.732C74.6531 61.2176 75.1646 60.5624 74.2744 60.1464C73.9415 60.6336 73.5914 61.1181 72.923 61.3044C73.0131 61.1412 73.1037 60.9774 73.1943 60.8136C73.7279 59.8481 74.2636 58.8836 74.7902 57.9139C74.8274 57.8454 74.8096 57.737 74.7902 57.6533C74.3472 55.7406 73.5434 53.9582 72.7077 52.1853C72.5 51.7457 72.3468 51.2752 72.227 50.8048C71.9432 49.687 71.6584 48.5671 71.4442 47.4352C71.305 46.6989 71.2899 45.9406 71.2586 45.1703C72.9694 48.5059 75.2239 51.4599 77.8815 54.1414C77.7342 53.9315 77.5761 53.7285 77.4418 53.5113C77.035 52.853 76.645 52.1847 76.2339 51.5295C75.6453 50.5928 75.0162 49.6791 74.4541 48.7277C73.4091 46.9595 72.3997 45.1713 71.3768 43.391C71.3185 43.29 71.2683 43.1854 71.1766 43.0106C70.8847 44.2493 70.6107 45.4115 70.3366 46.5743C70.3053 46.5696 70.274 46.5654 70.2427 46.5607C70.2357 46.4231 70.2287 46.286 70.2217 46.1489C70.1969 46.1421 70.1721 46.1353 70.1472 46.1285C70.0296 46.4765 69.912 46.8245 69.803 47.1468C69.7712 46.7334 69.7383 46.3048 69.7059 45.8768C69.6746 45.8731 69.6439 45.8694 69.6131 45.8658C69.4297 46.2635 69.2468 46.6607 69.0639 47.0584C69.0445 47.0521 69.0251 47.0458 69.0057 47.0396C69.0596 46.7585 69.1141 46.4775 69.1886 46.0908C69.0483 46.2698 68.9728 46.366 68.86 46.51C68.8789 46.3509 68.8918 46.241 68.9042 46.1316C68.8902 46.1269 68.8762 46.1217 68.8616 46.117C68.4683 46.8559 68.0745 47.5953 67.6812 48.3347C67.6553 48.3238 67.6289 48.3133 67.603 48.3023C67.7707 47.7806 67.9385 47.2593 68.1063 46.7376C68.0788 46.7245 68.0513 46.7114 68.0238 46.6978C67.8263 47.0333 67.631 47.3698 67.4319 47.7036C66.8034 48.7571 66.1728 49.81 65.5448 50.8639C65.4703 50.989 65.4056 51.1203 65.3371 51.2496C65.2038 51.5023 65.131 51.7729 64.7037 51.7326C64.5267 51.7158 64.3217 51.9801 64.0692 52.1591C63.9209 50.4965 63.7736 48.8387 63.6258 47.1808C63.595 47.1719 63.5637 47.1636 63.533 47.1547C63.1926 47.858 62.8516 48.5613 62.5112 49.2652C62.4885 49.2579 62.4659 49.2505 62.4432 49.2432C62.4626 49.0962 62.482 48.9496 62.5149 48.7011C62.3385 49.0114 62.2123 49.2327 62.0866 49.4546C62.0726 49.451 62.0585 49.4473 62.045 49.4436C62.0655 49.3374 62.086 49.2312 62.1065 49.1249C62.0866 49.1139 62.0666 49.103 62.0472 49.0925C61.7246 49.5326 61.4198 49.9863 61.0756 50.4097C60.344 51.3098 59.5175 52.1151 58.4827 52.6918C58.2944 52.797 58.0781 52.8551 57.8747 52.9352C57.8305 52.8996 57.7862 52.864 57.742 52.8289C57.9373 52.3747 58.0981 51.9032 58.3344 51.4704C58.8393 50.5462 59.4091 49.6551 59.9043 48.7257C60.323 47.9402 60.7092 47.1343 61.0454 46.3122C61.4694 45.277 61.8913 44.255 62.6687 43.4025C63.055 42.9792 63.103 42.8887 62.7043 42.3601C62.1028 41.5615 61.6339 40.6688 61.1139 39.8126C60.7211 39.1658 60.3364 38.5138 59.9032 37.789C59.8644 39.1182 59.6119 40.3307 59.128 41.5029C59.2499 40.1968 59.3713 38.8911 59.4932 37.5854C59.4743 37.5823 59.4554 37.5797 59.4371 37.5765C59.0853 38.6666 58.7617 39.7655 58.3743 40.8436C57.9918 41.909 57.6503 43.0006 56.7936 43.872C57.2651 42.3329 57.7361 40.7944 58.2049 39.2642C57.7679 39.9958 57.3277 40.7368 56.8799 41.4742C56.8141 41.5825 56.7126 41.6704 56.6274 41.7677C56.506 41.6563 56.3846 41.5448 56.2627 41.4333C56.6085 40.8059 56.9538 40.1784 57.3007 39.552C57.3617 39.4416 57.4307 39.3359 57.4868 39.2438C55.6957 39.6834 54.1608 40.5981 52.6858 41.628C52.4269 41.8085 52.2494 42.009 52.2073 42.324C52.129 42.908 52.0346 43.4899 51.9354 44.1519C52.6189 43.7003 53.1147 43.1116 53.9644 42.997C54.0815 43.5862 54.375 44.1755 54.2692 44.6878C53.9013 46.4739 54.7899 47.9805 55.2673 49.575C55.5586 50.5499 56.0307 51.4746 56.322 52.45C56.7078 53.7411 56.7882 55.0844 56.8502 56.4235C56.8669 56.781 56.9166 57.1368 56.9225 57.4942C56.9268 57.7313 56.8923 57.9762 56.4542 58.0249C56.2778 56.927 56.1014 55.8312 55.9514 54.9018C55.0968 55.6087 54.1376 56.4016 53.1778 57.1949C53.2194 57.2509 53.2609 57.3064 53.3025 57.3618C53.1805 57.2891 53.0494 57.2263 52.9378 57.1405C52.4921 56.7993 52.2084 56.7773 51.7902 57.1745C51.206 57.7297 50.6514 58.3163 50.1065 58.9087C48.9768 60.1354 47.8055 61.3144 46.3926 62.2448C45.9426 62.5415 45.518 62.8749 45.0746 63.1821C44.9774 63.2496 44.855 63.2946 44.7374 63.3202C44.6381 63.3417 44.4601 63.3527 44.439 63.3103C44.3932 63.2203 44.3813 63.0628 44.4353 62.9848C44.8226 62.4269 45.1776 61.8356 45.6432 61.3447C46.2318 60.7236 46.9191 60.1914 47.5552 59.6115C47.7197 59.4619 47.8864 59.2955 47.99 59.105C48.659 57.8804 49.2033 56.614 49.2578 55.1545C48.7378 55.8327 48.2349 56.4879 47.8055 57.0468C47.4219 57.0468 47.1468 57.0468 46.8134 57.0468C46.815 57.0515 46.801 56.9662 46.7502 56.9154C46.6591 56.8244 46.5474 56.6946 46.4422 56.6925C46.3532 56.6909 46.2345 56.8328 46.1746 56.9359C45.6534 57.8354 45.1431 58.7408 44.6268 59.6435C44.5701 59.7424 44.4957 59.8313 44.3786 59.9009C44.5464 59.4111 44.7142 58.9213 44.9019 58.3739C44.759 58.4456 44.6818 58.4843 44.6041 58.5231C44.4239 58.3608 44.2432 58.1981 44.0625 58.0359C44.4261 57.6109 44.7816 57.1802 45.1555 56.7642C45.4339 56.4544 45.5035 56.0918 45.5267 55.6993C45.6 54.4428 45.6362 53.1811 45.784 51.932C45.8833 51.0962 46.1455 50.2778 46.3391 49.4525C46.3899 49.2364 46.4568 49.0239 46.4433 48.7738C45.975 49.4316 45.5067 50.0894 45.0384 50.7472C45.0077 50.7336 44.9769 50.72 44.9467 50.7059C45.347 49.8016 45.7479 48.8968 46.1482 47.9925C45.0654 49.3657 44.4595 50.9665 43.7873 52.5578C43.8375 52.1272 43.8882 51.6965 43.9389 51.2658C43.9184 51.259 43.8974 51.2527 43.8769 51.2464C43.7727 51.5615 43.6686 51.8765 43.5645 52.1915C43.5516 52.1889 43.5381 52.1863 43.5251 52.1837C43.5359 52.0209 43.5472 51.8582 43.558 51.696C43.5343 51.6855 43.5106 51.675 43.4868 51.6646C43.3643 51.8943 43.2419 52.1235 43.1194 52.3532C43.1027 52.3506 43.086 52.3485 43.0692 52.3459C43.1022 52.1732 43.1351 52 43.168 51.8268C43.1426 51.8074 43.1173 51.7881 43.0919 51.7682C43.0234 51.8315 42.9085 51.887 42.895 51.9597C42.8097 52.4275 42.7002 52.8985 42.6981 53.369C42.6964 53.5856 42.8847 53.8321 43.0466 54.0153C43.6767 54.7254 43.6692 55.1446 42.9716 55.7814C42.7855 55.9515 42.5972 56.119 42.3102 56.378C42.3102 55.9243 42.3199 55.5606 42.3069 55.1979C42.2972 54.9305 42.1974 54.7395 41.9536 54.5396C41.7146 54.3434 41.5274 53.9629 41.5133 53.6552C41.4497 52.2486 41.9109 51.0261 43.0563 50.0993C43.8369 49.4667 43.8386 49.4682 44.33 48.554C43.79 48.9962 43.3336 49.3704 42.8766 49.744C42.8491 49.7205 42.8216 49.6964 42.7941 49.6728C44.0614 48.3813 45.4047 47.1526 46.3958 45.5879C45.934 45.7402 45.4722 45.893 45.0104 46.0453C44.9909 46.0165 44.971 45.9872 44.951 45.9584C45.3605 45.7135 45.7425 45.3948 46.1854 45.2399C46.8921 44.9929 47.2914 44.445 47.6194 43.8971C48.6455 42.1827 50.0347 40.8373 51.7525 39.7969C52.4544 39.372 53.1854 38.9931 53.9035 38.5933C54.5967 38.271 55.2894 37.9486 56.001 37.6179C55.6331 37.0344 55.311 36.5236 54.9959 36.0239C54.6194 36.8329 54.2531 37.621 53.8862 38.4097C54.102 37.429 54.321 36.4488 54.5304 35.4671C54.566 35.3022 54.5595 35.129 54.4818 34.9422C53.8722 35.87 53.2625 36.7979 52.6529 37.7257C52.6173 37.7084 52.5811 37.6906 52.545 37.6728C52.928 36.7774 53.3111 35.8821 53.7152 34.937C53.0451 35.6769 52.4096 36.3792 51.7746 37.081C51.5782 36.8873 51.3818 36.6932 51.1855 36.499Z" fill="black"/>
        <path fill-rule="evenodd" clip-rule="evenodd" d="M49.6559 34.9991C49.842 35.1833 50.0281 35.3675 50.2143 35.5522C49.8005 35.9818 49.3646 36.3942 48.9761 36.8448C48.0142 37.961 47.0733 39.0945 46.1243 40.2212C46.0466 40.3133 45.9738 40.4101 45.8918 40.498C45.4046 41.0213 45.0016 41.5781 44.7977 42.2804C44.6439 42.81 44.3931 43.3249 44.1088 43.8038C43.7878 44.3449 43.5973 44.9184 43.6939 45.5119C43.9248 46.9347 43.3362 48.0656 42.4822 49.1321C41.9794 49.7601 41.503 50.408 40.9964 51.0328C40.6268 51.4896 40.411 51.9742 40.3916 52.5734C40.3166 54.8975 40.3522 57.2168 40.588 59.5309C40.6403 60.0411 40.4488 60.3483 40.0253 60.6319C39.421 61.0359 38.8762 61.5221 38.2865 61.947C38.1397 62.0527 37.9169 62.06 37.6682 62.1296C37.529 59.7643 36.7284 57.6161 36.1506 55.3611C36.1506 56.5506 36.1501 57.6815 36.1506 58.8118C36.1511 58.9578 36.1409 59.1054 36.1603 59.2493C36.2741 60.0913 36.0459 60.8255 35.419 61.4242C34.6325 62.1752 33.8345 62.9151 33.0404 63.6593C32.7086 63.9696 32.3013 63.9309 31.833 63.9047C31.8859 61.1693 31.6253 58.4513 32.0186 55.7379C31.9846 55.7311 31.9506 55.7243 31.9172 55.7175C31.3625 56.5919 30.8295 57.4795 30.2501 58.3377C29.1565 59.9574 27.8709 61.4054 26.1672 62.4604C26.0873 62.5101 26.0037 62.5818 25.9168 62.5886C25.7771 62.5996 25.6029 62.6058 25.503 62.5347C25.4459 62.4938 25.4685 62.2782 25.5225 62.1741C25.6444 61.9386 25.7863 61.7068 25.9584 61.5037C27.1642 60.0819 28.1164 58.5062 28.9359 56.8552C29.7953 55.1225 31.0707 53.721 32.5737 52.5085C33.1753 52.0234 33.8944 51.6775 34.5078 51.2039C34.7501 51.0166 34.8493 50.6555 35.0139 50.3729C34.9767 50.3467 34.9394 50.3206 34.9022 50.2944C33.991 50.9093 33.014 51.452 32.1885 52.1611C31.3674 52.866 30.699 53.7388 29.9124 54.5186C30.2015 53.9649 30.4643 53.3961 30.7864 52.8607C31.2897 52.0229 31.8465 51.2165 32.6994 50.6633C32.9697 50.488 33.2907 50.3834 33.5513 50.1976C34.0007 49.8773 34.4129 49.5089 34.8563 49.1808C35.159 48.9568 35.098 48.7632 34.8752 48.5319C34.3622 47.9997 33.8588 47.4591 33.3339 46.9028C32.7453 48.1059 32.161 49.2996 31.5767 50.4933C31.5228 50.4734 31.4688 50.453 31.4149 50.4326C31.7726 49.3017 32.1303 48.1708 32.4917 47.0284C32.3444 47.2848 32.1982 47.5386 32.0353 47.8212C31.9905 47.7422 31.9614 47.692 31.9328 47.6412C31.8076 47.8437 31.6819 48.0468 31.5562 48.2493C31.5319 48.2388 31.5071 48.2284 31.4829 48.2179C31.6938 47.6527 31.9047 47.087 32.1162 46.5213C32.1049 46.5124 32.0936 46.5035 32.0817 46.4946C31.6857 47.0091 31.2897 47.524 30.8932 48.0384C30.8694 48.0243 30.8452 48.0101 30.8214 47.996C31.2519 47.0661 31.6825 46.1356 32.1416 45.144C31.2665 46.0655 30.4211 46.9562 29.5563 47.8683C29.8007 47.895 29.9706 47.9139 30.14 47.9327C30.0996 48.1321 30.1185 48.3718 30.0095 48.5256C28.582 50.5315 27.1313 52.5227 25.7027 54.5275C25.5753 54.7059 25.495 54.9582 25.4998 55.1738C25.5176 55.9556 25.5813 56.7364 25.6266 57.5172C25.6309 57.5962 25.6638 57.705 25.6234 57.75C25.2775 58.1415 25.5419 58.5502 25.5397 58.9563C25.5381 59.2912 25.3968 59.6591 25.216 59.9542C24.5562 61.0338 23.6375 61.9088 22.6523 62.699C21.8916 63.3086 21.0365 63.8105 20.012 63.9183C19.8869 63.9314 19.7552 63.8895 19.6268 63.8733C19.6452 63.7477 19.6247 63.5975 19.6889 63.5002C19.9964 63.0329 20.3007 62.5587 20.6605 62.1296C20.8482 61.9062 20.8353 61.7607 20.6497 61.5953C20.3805 61.3556 20.0973 61.1301 19.854 60.9265C19.1639 61.4399 18.5187 61.9198 17.8729 62.4002C17.4073 61.9381 16.9455 61.4723 16.4756 61.015C15.6232 60.1845 14.7659 59.3592 13.9108 58.5319C14.2777 58.4125 14.6467 58.299 15.0114 58.1734C15.8196 57.8945 16.6536 57.6673 17.424 57.3115C18.2209 56.9431 18.9276 56.8855 19.6322 57.4465C19.7034 57.503 19.7914 57.5391 19.8308 57.5616C20.4242 56.8096 20.9691 56.0466 21.5933 55.3506C22.0751 54.8137 22.648 54.3516 23.1988 53.8765C23.3774 53.7221 23.4729 53.5818 23.4551 53.3401C23.4292 52.9868 23.4486 52.6299 23.3666 52.2495C23.0348 52.7006 22.7036 53.1512 22.3718 53.6023C22.3427 53.5881 22.313 53.574 22.2839 53.5599C22.4419 53.1533 22.6016 52.7466 22.7592 52.3395C22.9043 51.9622 22.8109 51.8696 22.3815 51.868C21.8512 51.8659 21.3203 51.8246 20.7403 51.7974C20.6324 51.9407 20.4814 52.1276 20.3465 52.3249C20.2079 52.5263 20.0568 52.7001 19.7827 52.5687C19.513 52.4395 19.5497 52.2102 19.6225 51.9821C19.6382 51.9345 19.6576 51.8884 19.6198 51.7968C19.0744 52.2814 18.5214 52.7592 17.984 53.2527C16.7556 54.383 15.5439 55.5307 14.3079 56.6537C12.5254 58.2739 10.4462 59.4518 8.25472 60.4712C7.43576 60.8522 6.67777 61.3562 5.89064 61.802C5.72609 61.8957 5.5637 62.0004 5.38674 62.0621C5.28909 62.0961 5.11969 62.0909 5.06143 62.0307C4.99884 61.9674 4.9778 61.7842 5.02798 61.7125C5.27237 61.3656 5.50382 60.994 5.8178 60.713C6.88547 59.758 8.1738 59.1378 9.48532 58.5695C11.557 57.6721 13.339 56.4025 14.9499 54.8509C16.8101 53.0591 18.7674 51.362 20.6767 49.6183C20.9804 49.3409 21.2518 49.0306 21.5442 48.7417C21.7541 48.5345 21.9569 48.3142 22.1938 48.1405C22.7667 47.7202 22.8681 47.7338 23.3434 48.2446C24.1958 49.1609 25.3142 49.6947 26.4418 50.3028C26.8923 49.7543 27.3546 49.22 27.784 48.6617C29.0055 47.0745 30.4071 45.6463 31.8287 44.2303C32.502 43.5594 33.0328 42.7524 33.7164 42.0936C34.3789 41.4546 35.1428 40.9104 35.8906 40.3614C36.0449 40.2479 36.3254 40.296 36.6243 40.2609C36.907 40.0145 37.2636 39.6686 37.6574 39.3687C38.0885 39.0406 38.2735 39.107 38.4289 39.5979C38.6738 40.3708 39.2101 40.9522 39.7512 41.5357C40.2869 42.1135 40.7978 42.7132 41.3411 43.2841C41.4096 43.3558 41.6573 43.3741 41.7355 43.3134C42.2647 42.9 42.8258 42.507 43.2725 42.0172C44.365 40.8188 45.3836 39.5571 46.4647 38.3482C47.4493 37.2472 48.4771 36.1823 49.4886 35.1037C49.5318 35.0577 49.5998 35.0336 49.6559 34.9991ZM40.595 50.8915C40.6862 50.7497 40.7336 50.689 40.7676 50.622C41.2909 49.589 41.8353 48.5649 42.3219 47.5161C42.4827 47.1702 42.5259 46.7626 42.5658 46.3779C42.6246 45.8138 42.5723 45.2335 42.6796 44.6808C42.7676 44.2308 43.0206 43.8111 43.1716 43.4463C42.3117 44.0607 41.4005 44.7117 40.4871 45.3643C40.7353 45.649 41.0212 45.9766 41.3066 46.3036C41.2861 46.3246 41.2651 46.3455 41.244 46.3664C40.8772 46.0598 40.5103 45.7531 40.1434 45.4464C40.1299 45.4564 40.117 45.4669 40.1035 45.4768C40.1909 45.6427 40.2778 45.8086 40.3652 45.9745C40.3474 45.9844 40.3296 45.9949 40.3118 46.0053C40.1747 45.8353 40.0382 45.6657 39.858 45.4417C40.0339 46.1639 40.1931 46.8159 40.3517 47.468C40.3226 47.4764 40.2934 47.4853 40.2643 47.4936C40.0415 46.9504 39.8192 46.4072 39.5969 45.864C39.5856 45.8688 39.5743 45.874 39.5624 45.8787C39.6897 46.9902 39.8176 48.1017 39.9449 49.2132C39.8958 49.2206 39.8467 49.2274 39.7982 49.2342C39.7275 48.9474 39.6568 48.6601 39.5867 48.3733C39.5543 48.3775 39.5219 48.3822 39.4901 48.3864C39.4901 49.0212 39.4901 49.656 39.4901 50.2714C39.8138 50.1442 40.1343 50.0186 40.4898 49.8794C40.5297 50.263 40.5578 50.5325 40.595 50.8915ZM23.6795 51.7173C23.6795 52.0899 23.6795 52.4416 23.6795 52.7932C23.7934 52.6671 23.8371 52.5305 23.9142 52.4143C24.1899 51.9994 24.1656 51.9125 23.6795 51.7173Z" fill="black"/>
        <path d="M51.1855 36.499C51.6877 35.2792 52.4441 34.2174 53.3861 33.2875C54.3685 32.3178 55.3898 31.3853 56.3933 30.436C56.4407 30.391 56.4828 30.3402 56.5243 30.2952C56.2174 29.8603 56.1661 29.8839 55.8154 30.2486C55.1821 30.9075 54.5099 31.5318 53.8527 32.1692C53.2933 32.7119 52.7403 33.2613 52.1684 33.7914C51.5259 34.3875 50.8661 34.9663 50.2138 35.5524C50.0277 35.3677 49.8416 35.1834 49.6554 34.9992C50.2764 34.4053 50.8963 33.8103 51.5178 33.2174C53.0187 31.7856 54.5153 30.3496 56.0253 28.9273C56.2972 28.6709 56.6117 28.4505 56.9295 28.2475C57.5721 27.8367 58.2324 27.9225 58.6095 28.617C58.8501 29.0602 59.0627 29.5244 59.2262 29.9995C60.3267 33.1933 61.7974 36.2138 63.6592 39.0575C64.2154 39.9068 64.7264 40.7834 65.2912 41.7018C65.8987 41.3643 66.4792 40.9969 67.098 40.708C68.3459 40.1256 69.2064 39.0784 70.2837 38.294C70.7197 37.9769 71.168 37.6624 71.6514 37.4248C71.8936 37.306 72.2389 37.3008 72.5178 37.3499C73.7721 37.5692 74.6763 38.2888 75.4036 39.2799C76.3963 40.6316 77.0339 42.1529 77.7018 43.6605C78.1173 44.5973 78.4879 45.5534 78.9287 46.478C79.1078 46.8548 79.4121 47.1772 79.6721 47.5158C81.2302 49.5441 82.7926 51.5693 84.3512 53.5971C84.6031 53.9247 84.8443 54.2602 85.0061 54.4779C85.5456 54.0226 86.056 53.5689 86.5917 53.1466C87.0352 52.797 87.4975 52.4668 87.9739 52.1607C88.3726 51.9037 88.5528 51.9534 88.8382 52.3114C89.6501 53.3308 90.4934 54.3245 91.5788 55.087C92.12 55.4675 92.6546 55.8814 93.2529 56.1551C94.5132 56.7312 94.9081 57.7554 95.0187 58.9846C95.0667 59.5184 95.1692 60.048 95.2561 60.6435C94.8104 60.8863 94.2796 61.1825 93.7395 61.4635C93.6521 61.5091 93.5264 61.4949 93.4185 61.4934C92.475 61.4818 91.5314 61.4792 90.5889 61.4421C90.4011 61.4347 90.1993 61.3181 90.0386 61.2055C89.2207 60.633 88.4125 60.0485 87.6054 59.4629C86.8874 58.9412 86.1752 58.4121 85.428 57.8626C85.0439 58.287 84.6279 58.8077 84.1462 59.2635C83.3758 59.993 82.5676 60.6859 81.7594 61.3767C81.6316 61.4855 81.4185 61.5012 81.2437 61.5577C81.2188 61.5656 81.1897 61.5598 81.1622 61.5598C80.2753 61.5687 79.2971 61.8743 78.7954 60.8183C78.7134 60.8628 78.6961 60.8664 78.6907 60.8764C78.2581 61.6462 77.5459 61.7822 76.7216 61.7398C76.0154 61.7032 75.3054 61.732 74.5728 61.732C74.6531 61.2176 75.1646 60.5624 74.2744 60.1464C73.9415 60.6336 73.5914 61.1181 72.923 61.3044C73.0131 61.1412 73.1037 60.9774 73.1943 60.8136C73.7279 59.8481 74.2636 58.8836 74.7902 57.9139C74.8274 57.8454 74.8096 57.737 74.7902 57.6533C74.3472 55.7406 73.5434 53.9582 72.7077 52.1853C72.5 51.7457 72.3468 51.2752 72.227 50.8048C71.9432 49.687 71.6584 48.5671 71.4442 47.4352C71.305 46.6989 71.2899 45.9406 71.2586 45.1703C72.9694 48.5059 75.2239 51.4599 77.8815 54.1414C77.7342 53.9315 77.5761 53.7285 77.4418 53.5113C77.035 52.853 76.645 52.1847 76.2339 51.5295C75.6453 50.5928 75.0162 49.6791 74.4541 48.7277C73.4091 46.9595 72.3997 45.1713 71.3768 43.391C71.3185 43.29 71.2683 43.1854 71.1766 43.0106C70.8847 44.2493 70.6107 45.4115 70.3366 46.5743C70.3053 46.5696 70.274 46.5654 70.2427 46.5607C70.2357 46.4231 70.2287 46.286 70.2217 46.1489C70.1969 46.1421 70.1721 46.1353 70.1472 46.1285C70.0296 46.4765 69.912 46.8245 69.803 47.1468C69.7712 46.7334 69.7383 46.3048 69.7059 45.8768C69.6746 45.8731 69.6439 45.8694 69.6131 45.8658C69.4297 46.2635 69.2468 46.6607 69.0639 47.0584C69.0445 47.0521 69.0251 47.0458 69.0057 47.0396C69.0596 46.7585 69.1141 46.4775 69.1886 46.0908C69.0483 46.2698 68.9728 46.366 68.86 46.51C68.8789 46.3509 68.8918 46.241 68.9042 46.1316C68.8902 46.1269 68.8762 46.1217 68.8616 46.117C68.4683 46.8559 68.0745 47.5953 67.6812 48.3347C67.6553 48.3238 67.6289 48.3133 67.603 48.3023C67.7707 47.7806 67.9385 47.2593 68.1063 46.7376C68.0788 46.7245 68.0513 46.7114 68.0238 46.6978C67.8263 47.0333 67.631 47.3698 67.4319 47.7036C66.8034 48.7571 66.1728 49.81 65.5448 50.8639C65.4703 50.989 65.4056 51.1203 65.3371 51.2496C65.2038 51.5023 65.131 51.7729 64.7037 51.7326C64.5267 51.7158 64.3217 51.9801 64.0692 52.1591C63.9209 50.4965 63.7736 48.8387 63.6258 47.1808C63.595 47.1719 63.5637 47.1636 63.533 47.1547C63.1926 47.858 62.8516 48.5613 62.5112 49.2652C62.4885 49.2579 62.4659 49.2505 62.4432 49.2432C62.4626 49.0962 62.482 48.9496 62.5149 48.7011C62.3385 49.0114 62.2123 49.2327 62.0866 49.4546C62.0726 49.451 62.0585 49.4473 62.045 49.4436C62.0655 49.3374 62.086 49.2312 62.1065 49.1249C62.0866 49.1139 62.0666 49.103 62.0472 49.0925C61.7246 49.5326 61.4198 49.9863 61.0756 50.4097C60.344 51.3098 59.5175 52.1151 58.4827 52.6918C58.2944 52.797 58.0781 52.8551 57.8747 52.9352C57.8305 52.8996 57.7862 52.864 57.742 52.8289C57.9373 52.3747 58.0981 51.9032 58.3344 51.4704C58.8393 50.5462 59.4091 49.6551 59.9043 48.7257C60.323 47.9402 60.7092 47.1343 61.0454 46.3122C61.4694 45.277 61.8913 44.255 62.6687 43.4025C63.055 42.9792 63.103 42.8887 62.7043 42.3601C62.1028 41.5615 61.6339 40.6688 61.1139 39.8126C60.7211 39.1658 60.3364 38.5138 59.9032 37.789C59.8644 39.1182 59.6119 40.3307 59.128 41.5029C59.2499 40.1968 59.3713 38.8911 59.4932 37.5854C59.4743 37.5823 59.4554 37.5797 59.4371 37.5765C59.0853 38.6666 58.7617 39.7655 58.3743 40.8436C57.9918 41.909 57.6503 43.0006 56.7936 43.872C57.2651 42.3329 57.7361 40.7944 58.2049 39.2642C57.7679 39.9958 57.3277 40.7368 56.8799 41.4742C56.8141 41.5825 56.7126 41.6704 56.6274 41.7677C56.506 41.6563 56.3846 41.5448 56.2627 41.4333C56.6085 40.8059 56.9538 40.1784 57.3007 39.552C57.3617 39.4416 57.4307 39.3359 57.4868 39.2438C55.6957 39.6834 54.1608 40.5981 52.6858 41.628C52.4269 41.8085 52.2494 42.009 52.2073 42.324C52.129 42.908 52.0346 43.4899 51.9354 44.1519C52.6189 43.7003 53.1147 43.1116 53.9644 42.997C54.0815 43.5862 54.375 44.1755 54.2692 44.6878C53.9013 46.4739 54.7899 47.9805 55.2673 49.575C55.5586 50.5499 56.0307 51.4746 56.322 52.45C56.7078 53.7411 56.7882 55.0844 56.8502 56.4235C56.8669 56.781 56.9166 57.1368 56.9225 57.4942C56.9268 57.7313 56.8923 57.9762 56.4542 58.0249C56.2778 56.927 56.1014 55.8312 55.9514 54.9018C55.0968 55.6087 54.1376 56.4016 53.1778 57.1949C53.2194 57.2509 53.2609 57.3064 53.3025 57.3618C53.1805 57.2891 53.0494 57.2263 52.9378 57.1405C52.4921 56.7993 52.2084 56.7773 51.7902 57.1745C51.206 57.7297 50.6514 58.3163 50.1065 58.9087C48.9768 60.1354 47.8055 61.3144 46.3926 62.2448C45.9426 62.5415 45.518 62.8749 45.0746 63.1821C44.9774 63.2496 44.855 63.2946 44.7374 63.3202C44.6381 63.3417 44.4601 63.3527 44.439 63.3103C44.3932 63.2203 44.3813 63.0628 44.4353 62.9848C44.8226 62.4269 45.1776 61.8356 45.6432 61.3447C46.2318 60.7236 46.9191 60.1914 47.5552 59.6115C47.7197 59.4619 47.8864 59.2955 47.99 59.105C48.659 57.8804 49.2033 56.614 49.2578 55.1545C48.7378 55.8327 48.2349 56.4879 47.8055 57.0468C47.4219 57.0468 47.1468 57.0468 46.8134 57.0468C46.815 57.0515 46.801 56.9662 46.7502 56.9154C46.6591 56.8244 46.5474 56.6946 46.4422 56.6925C46.3532 56.6909 46.2345 56.8328 46.1746 56.9359C45.6534 57.8354 45.1431 58.7408 44.6268 59.6435C44.5701 59.7424 44.4957 59.8313 44.3786 59.9009C44.5464 59.4111 44.7142 58.9213 44.9019 58.3739C44.759 58.4456 44.6818 58.4843 44.6041 58.5231C44.4239 58.3608 44.2432 58.1981 44.0625 58.0359C44.4261 57.6109 44.7816 57.1802 45.1555 56.7642C45.4339 56.4544 45.5035 56.0918 45.5267 55.6993C45.6 54.4428 45.6362 53.1811 45.784 51.932C45.8833 51.0962 46.1455 50.2778 46.3391 49.4525C46.3899 49.2364 46.4568 49.0239 46.4433 48.7738C45.975 49.4316 45.5067 50.0894 45.0384 50.7472C45.0077 50.7336 44.9769 50.72 44.9467 50.7059C45.347 49.8016 45.7479 48.8968 46.1482 47.9925C45.0654 49.3657 44.4595 50.9665 43.7873 52.5578C43.8375 52.1272 43.8882 51.6965 43.9389 51.2658C43.9184 51.259 43.8974 51.2527 43.8769 51.2464C43.7727 51.5615 43.6686 51.8765 43.5645 52.1915C43.5516 52.1889 43.5381 52.1863 43.5251 52.1837C43.5359 52.0209 43.5472 51.8582 43.558 51.696C43.5343 51.6855 43.5106 51.675 43.4868 51.6646C43.3643 51.8943 43.2419 52.1235 43.1194 52.3532C43.1027 52.3506 43.086 52.3485 43.0692 52.3459C43.1022 52.1732 43.1351 52 43.168 51.8268C43.1426 51.8074 43.1173 51.7881 43.0919 51.7682C43.0234 51.8315 42.9085 51.887 42.895 51.9597C42.8097 52.4275 42.7002 52.8985 42.6981 53.369C42.6964 53.5856 42.8847 53.8321 43.0466 54.0153C43.6767 54.7254 43.6692 55.1446 42.9716 55.7814C42.7855 55.9515 42.5972 56.119 42.3102 56.378C42.3102 55.9243 42.3199 55.5606 42.3069 55.1979C42.2972 54.9305 42.1974 54.7395 41.9536 54.5396C41.7146 54.3434 41.5274 53.9629 41.5133 53.6552C41.4497 52.2486 41.9109 51.0261 43.0563 50.0993C43.8369 49.4667 43.8386 49.4682 44.33 48.554C43.79 48.9962 43.3336 49.3704 42.8766 49.744C42.8491 49.7205 42.8216 49.6964 42.7941 49.6728C44.0614 48.3813 45.4047 47.1526 46.3958 45.5879C45.934 45.7402 45.4722 45.893 45.0104 46.0453C44.9909 46.0165 44.971 45.9872 44.951 45.9584C45.3605 45.7135 45.7425 45.3948 46.1854 45.2399C46.8921 44.9929 47.2914 44.445 47.6194 43.8971C48.6455 42.1827 50.0347 40.8373 51.7525 39.7969C52.4544 39.372 53.1854 38.9931 53.9035 38.5933C54.5967 38.271 55.2894 37.9486 56.001 37.6179C55.6331 37.0344 55.311 36.5236 54.9959 36.0239C54.6194 36.8329 54.2531 37.621 53.8862 38.4097C54.102 37.429 54.321 36.4488 54.5304 35.4671C54.566 35.3022 54.5595 35.129 54.4818 34.9422C53.8722 35.87 53.2625 36.7979 52.6529 37.7257C52.6173 37.7084 52.5811 37.6906 52.545 37.6728C52.928 36.7774 53.3111 35.8821 53.7152 34.937C53.0451 35.6769 52.4096 36.3792 51.7746 37.081C51.5782 36.8873 51.3818 36.6932 51.1855 36.499Z" fill="#212529"/>
        <path fill-rule="evenodd" clip-rule="evenodd" d="M49.6559 34.9991C49.842 35.1833 50.0281 35.3675 50.2143 35.5522C49.8005 35.9818 49.3646 36.3942 48.9761 36.8448C48.0142 37.961 47.0733 39.0945 46.1243 40.2212C46.0466 40.3133 45.9738 40.4101 45.8918 40.498C45.4046 41.0213 45.0016 41.5781 44.7977 42.2804C44.6439 42.81 44.3931 43.3249 44.1088 43.8038C43.7878 44.3449 43.5973 44.9184 43.6939 45.5119C43.9248 46.9347 43.3362 48.0656 42.4822 49.1321C41.9794 49.7601 41.503 50.408 40.9964 51.0328C40.6268 51.4896 40.411 51.9742 40.3916 52.5734C40.3166 54.8975 40.3522 57.2168 40.588 59.5309C40.6403 60.0411 40.4488 60.3483 40.0253 60.6319C39.421 61.0359 38.8762 61.5221 38.2865 61.947C38.1397 62.0527 37.9169 62.06 37.6682 62.1296C37.529 59.7643 36.7284 57.6161 36.1506 55.3611C36.1506 56.5506 36.1501 57.6815 36.1506 58.8118C36.1511 58.9578 36.1409 59.1054 36.1603 59.2493C36.2741 60.0913 36.0459 60.8255 35.419 61.4242C34.6325 62.1752 33.8345 62.9151 33.0404 63.6593C32.7086 63.9696 32.3013 63.9309 31.833 63.9047C31.8859 61.1693 31.6253 58.4513 32.0186 55.7379C31.9846 55.7311 31.9506 55.7243 31.9172 55.7175C31.3625 56.5919 30.8295 57.4795 30.2501 58.3377C29.1565 59.9574 27.8709 61.4054 26.1672 62.4604C26.0873 62.5101 26.0037 62.5818 25.9168 62.5886C25.7771 62.5996 25.6029 62.6058 25.503 62.5347C25.4459 62.4938 25.4685 62.2782 25.5225 62.1741C25.6444 61.9386 25.7863 61.7068 25.9584 61.5037C27.1642 60.0819 28.1164 58.5062 28.9359 56.8552C29.7953 55.1225 31.0707 53.721 32.5737 52.5085C33.1753 52.0234 33.8944 51.6775 34.5078 51.2039C34.7501 51.0166 34.8493 50.6555 35.0139 50.3729C34.9767 50.3467 34.9394 50.3206 34.9022 50.2944C33.991 50.9093 33.014 51.452 32.1885 52.1611C31.3674 52.866 30.699 53.7388 29.9124 54.5186C30.2015 53.9649 30.4643 53.3961 30.7864 52.8607C31.2897 52.0229 31.8465 51.2165 32.6994 50.6633C32.9697 50.488 33.2907 50.3834 33.5513 50.1976C34.0007 49.8773 34.4129 49.5089 34.8563 49.1808C35.159 48.9568 35.098 48.7632 34.8752 48.5319C34.3622 47.9997 33.8588 47.4591 33.3339 46.9028C32.7453 48.1059 32.161 49.2996 31.5767 50.4933C31.5228 50.4734 31.4688 50.453 31.4149 50.4326C31.7726 49.3017 32.1303 48.1708 32.4917 47.0284C32.3444 47.2848 32.1982 47.5386 32.0353 47.8212C31.9905 47.7422 31.9614 47.692 31.9328 47.6412C31.8076 47.8437 31.6819 48.0468 31.5562 48.2493C31.5319 48.2388 31.5071 48.2284 31.4829 48.2179C31.6938 47.6527 31.9047 47.087 32.1162 46.5213C32.1049 46.5124 32.0936 46.5035 32.0817 46.4946C31.6857 47.0091 31.2897 47.524 30.8932 48.0384C30.8694 48.0243 30.8452 48.0101 30.8214 47.996C31.2519 47.0661 31.6825 46.1356 32.1416 45.144C31.2665 46.0655 30.4211 46.9562 29.5563 47.8683C29.8007 47.895 29.9706 47.9139 30.14 47.9327C30.0996 48.1321 30.1185 48.3718 30.0095 48.5256C28.582 50.5315 27.1313 52.5227 25.7027 54.5275C25.5753 54.7059 25.495 54.9582 25.4998 55.1738C25.5176 55.9556 25.5813 56.7364 25.6266 57.5172C25.6309 57.5962 25.6638 57.705 25.6234 57.75C25.2775 58.1415 25.5419 58.5502 25.5397 58.9563C25.5381 59.2912 25.3968 59.6591 25.216 59.9542C24.5562 61.0338 23.6375 61.9088 22.6523 62.699C21.8916 63.3086 21.0365 63.8105 20.012 63.9183C19.8869 63.9314 19.7552 63.8895 19.6268 63.8733C19.6452 63.7477 19.6247 63.5975 19.6889 63.5002C19.9964 63.0329 20.3007 62.5587 20.6605 62.1296C20.8482 61.9062 20.8353 61.7607 20.6497 61.5953C20.3805 61.3556 20.0973 61.1301 19.854 60.9265C19.1639 61.4399 18.5187 61.9198 17.8729 62.4002C17.4073 61.9381 16.9455 61.4723 16.4756 61.015C15.6232 60.1845 14.7659 59.3592 13.9108 58.5319C14.2777 58.4125 14.6467 58.299 15.0114 58.1734C15.8196 57.8945 16.6536 57.6673 17.424 57.3115C18.2209 56.9431 18.9276 56.8855 19.6322 57.4465C19.7034 57.503 19.7914 57.5391 19.8308 57.5616C20.4242 56.8096 20.9691 56.0466 21.5933 55.3506C22.0751 54.8137 22.648 54.3516 23.1988 53.8765C23.3774 53.7221 23.4729 53.5818 23.4551 53.3401C23.4292 52.9868 23.4486 52.6299 23.3666 52.2495C23.0348 52.7006 22.7036 53.1512 22.3718 53.6023C22.3427 53.5881 22.313 53.574 22.2839 53.5599C22.4419 53.1533 22.6016 52.7466 22.7592 52.3395C22.9043 51.9622 22.8109 51.8696 22.3815 51.868C21.8512 51.8659 21.3203 51.8246 20.7403 51.7974C20.6324 51.9407 20.4814 52.1276 20.3465 52.3249C20.2079 52.5263 20.0568 52.7001 19.7827 52.5687C19.513 52.4395 19.5497 52.2102 19.6225 51.9821C19.6382 51.9345 19.6576 51.8884 19.6198 51.7968C19.0744 52.2814 18.5214 52.7592 17.984 53.2527C16.7556 54.383 15.5439 55.5307 14.3079 56.6537C12.5254 58.2739 10.4462 59.4518 8.25472 60.4712C7.43576 60.8522 6.67777 61.3562 5.89064 61.802C5.72609 61.8957 5.5637 62.0004 5.38674 62.0621C5.28909 62.0961 5.11969 62.0909 5.06143 62.0307C4.99884 61.9674 4.9778 61.7842 5.02798 61.7125C5.27237 61.3656 5.50382 60.994 5.8178 60.713C6.88547 59.758 8.1738 59.1378 9.48532 58.5695C11.557 57.6721 13.339 56.4025 14.9499 54.8509C16.8101 53.0591 18.7674 51.362 20.6767 49.6183C20.9804 49.3409 21.2518 49.0306 21.5442 48.7417C21.7541 48.5345 21.9569 48.3142 22.1938 48.1405C22.7667 47.7202 22.8681 47.7338 23.3434 48.2446C24.1958 49.1609 25.3142 49.6947 26.4418 50.3028C26.8923 49.7543 27.3546 49.22 27.784 48.6617C29.0055 47.0745 30.4071 45.6463 31.8287 44.2303C32.502 43.5594 33.0328 42.7524 33.7164 42.0936C34.3789 41.4546 35.1428 40.9104 35.8906 40.3614C36.0449 40.2479 36.3254 40.296 36.6243 40.2609C36.907 40.0145 37.2636 39.6686 37.6574 39.3687C38.0885 39.0406 38.2735 39.107 38.4289 39.5979C38.6738 40.3708 39.2101 40.9522 39.7512 41.5357C40.2869 42.1135 40.7978 42.7132 41.3411 43.2841C41.4096 43.3558 41.6573 43.3741 41.7355 43.3134C42.2647 42.9 42.8258 42.507 43.2725 42.0172C44.365 40.8188 45.3836 39.5571 46.4647 38.3482C47.4493 37.2472 48.4771 36.1823 49.4886 35.1037C49.5318 35.0577 49.5998 35.0336 49.6559 34.9991ZM40.595 50.8915C40.6862 50.7497 40.7336 50.689 40.7676 50.622C41.2909 49.589 41.8353 48.5649 42.3219 47.5161C42.4827 47.1702 42.5259 46.7626 42.5658 46.3779C42.6246 45.8138 42.5723 45.2335 42.6796 44.6808C42.7676 44.2308 43.0206 43.8111 43.1716 43.4463C42.3117 44.0607 41.4005 44.7117 40.4871 45.3643C40.7353 45.649 41.0212 45.9766 41.3066 46.3036C41.2861 46.3246 41.2651 46.3455 41.244 46.3664C40.8772 46.0598 40.5103 45.7531 40.1434 45.4464C40.1299 45.4564 40.117 45.4669 40.1035 45.4768C40.1909 45.6427 40.2778 45.8086 40.3652 45.9745C40.3474 45.9844 40.3296 45.9949 40.3118 46.0053C40.1747 45.8353 40.0382 45.6657 39.858 45.4417C40.0339 46.1639 40.1931 46.8159 40.3517 47.468C40.3226 47.4764 40.2934 47.4853 40.2643 47.4936C40.0415 46.9504 39.8192 46.4072 39.5969 45.864C39.5856 45.8688 39.5743 45.874 39.5624 45.8787C39.6897 46.9902 39.8176 48.1017 39.9449 49.2132C39.8958 49.2206 39.8467 49.2274 39.7982 49.2342C39.7275 48.9474 39.6568 48.6601 39.5867 48.3733C39.5543 48.3775 39.5219 48.3822 39.4901 48.3864C39.4901 49.0212 39.4901 49.656 39.4901 50.2714C39.8138 50.1442 40.1343 50.0186 40.4898 49.8794C40.5297 50.263 40.5578 50.5325 40.595 50.8915ZM23.6795 51.7173C23.6795 52.0899 23.6795 52.4416 23.6795 52.7932C23.7934 52.6671 23.8371 52.5305 23.9142 52.4143C24.1899 51.9994 24.1656 51.9125 23.6795 51.7173Z" fill="#212529"/>
        <path d="M68.4642 60.5711C68.4308 60.4669 68.4103 60.4324 68.4103 60.3978C68.4087 58.8745 68.4087 57.3506 68.4087 55.7927C68.8365 55.7436 68.9066 55.4809 68.9471 55.1245C69.1294 53.52 69.3496 51.9192 69.5583 50.3179C69.5734 50.2012 69.608 50.0871 69.6479 49.9055C69.7126 50.0139 69.7623 50.0673 69.7795 50.1295C70.127 51.3907 70.8704 52.4211 71.7827 53.3479C72.2348 53.8063 72.694 54.2626 73.1914 54.6734C73.5194 54.9445 73.5334 55.2051 73.2982 55.4898C72.7457 56.158 72.2095 56.8462 71.5923 57.4553C71.0814 57.9598 70.4334 58.3318 69.9031 58.8206C69.5427 59.1529 69.2821 59.5862 68.973 59.9713C68.8225 60.1587 68.6622 60.3387 68.4642 60.5711Z" fill="#212529"/>
        <path d="M65.9455 57.6538C66.0842 58.9542 66.2072 60.1631 66.3491 61.3693C66.3706 61.5509 66.4861 61.721 66.553 61.8984C66.5875 61.9894 66.6096 62.0842 66.6517 62.2249C65.9487 62.2678 65.297 62.3081 64.6459 62.3469C63.6769 62.4039 62.7086 62.4667 61.7391 62.5086C61.5772 62.5154 61.3879 62.4609 61.2514 62.3746C60.7486 62.0575 60.2625 61.7147 59.7861 61.3929C58.9423 61.8084 58.364 62.6687 57.3605 62.7995C57.3125 62.7613 57.2651 62.7226 57.217 62.6844C57.3525 62.3751 57.4879 62.0664 57.6006 61.8089C57.8979 61.8738 58.1768 62.0245 58.3273 61.945C58.5167 61.845 58.6559 61.5729 58.7228 61.3489C59.2288 59.6471 59.7117 57.9385 60.2026 56.2324C60.2269 56.1482 60.2636 56.0676 60.3191 55.919C60.5662 56.9515 60.7917 57.9112 61.0269 58.8689C61.1958 59.5586 61.5071 59.8208 62.2413 59.8993C62.5661 59.9339 62.9044 59.9072 63.2162 59.9846C63.4671 60.0474 63.7001 60.207 63.9181 60.3556C64.5536 60.7879 64.9248 60.6435 65.0408 59.8957C65.0688 59.7125 65.091 59.5231 65.0737 59.3404C65.009 58.67 65.2663 58.1493 65.9455 57.6538Z" fill="black"/>
        <path d="M44.0629 58.0362C44.2437 58.1984 44.4244 58.3611 44.6046 58.5234C44.2631 58.8447 44.0462 59.2576 43.5855 59.5014C43.019 59.8013 42.6397 60.2895 42.5534 60.9813C42.4919 61.478 42.2702 61.9558 42.076 62.4168C42.1062 61.7747 42.1153 61.131 42.1763 60.4915C42.2027 60.2131 42.2599 59.8808 42.4347 59.682C42.9419 59.1037 43.5153 58.5804 44.0629 58.0362Z" fill="#212529"/>
        <path d="M51.1853 36.4991C51.3817 36.6932 51.5781 36.8873 51.7745 37.081C51.5279 37.5195 51.2824 37.958 51.0359 38.3966C50.6469 39.0889 50.2574 39.7807 49.8679 40.4731C49.8355 40.4621 49.8031 40.4516 49.7708 40.4406C49.8571 40.124 49.9197 39.799 50.034 39.4919C50.4079 38.4908 50.8001 37.496 51.1853 36.4991Z" fill="black"/>
        <path d="M56.2626 41.4331C56.3845 41.5446 56.5059 41.6561 56.6273 41.7675C56.2539 42.3463 55.8849 42.9277 55.5046 43.5023C55.3552 43.7284 55.182 43.9398 55.0196 44.1575C54.9808 44.1371 54.9419 44.1167 54.9031 44.0968C55.3563 43.2087 55.8094 42.3212 56.2626 41.4331Z" fill="black"/>
        <path d="M41.6633 58.7297C41.6271 58.354 41.5969 58.0426 41.5662 57.7234C42.1235 57.8349 42.1662 58.1625 41.6633 58.7297Z" fill="#212529"/>
        <path d="M23.6792 51.7176C24.1653 51.9128 24.1896 51.9996 23.9139 52.4147C23.8367 52.5308 23.793 52.6674 23.6792 52.7936C23.6792 52.4419 23.6792 52.0902 23.6792 51.7176Z" fill="white"/>
    </g>
    <path fill-rule="evenodd" clip-rule="evenodd" d="M79.0589 57.4842C79.6733 55.0918 80 52.5841 80 50C80 33.9666 67.4222 20.8709 51.5953 20.0417C51.0672 20.014 50.5355 20 50.0006 20C50.0004 20 50.0002 20 50 20C33.4315 20 20 33.4315 20 50C20 50.0009 20 50.0018 20 50.0026C20 50.0035 20 50.0044 20 50.0053C20 50.5168 20.0129 51.0248 20.0381 51.5299L20.0383 51.5299C20.1363 53.4797 20.4204 55.3804 20.8732 57.2146L20.8727 57.2148C22.1853 62.5348 24.9167 67.2951 28.6411 71.0729L28.6473 71.0728C29.4572 71.8934 30.314 72.6675 31.2135 73.3908L31.207 73.3924C35.1578 76.573 39.9308 78.7722 45.1578 79.6211C45.1594 79.6181 45.161 79.6151 45.1627 79.612C46.7374 79.8673 48.3532 80 50 80C50.2534 80 50.5061 79.9969 50.7581 79.9906C50.755 79.9937 50.752 79.9968 50.749 80C50.8727 79.9971 50.9959 79.9941 51.1185 79.9894L51.1192 79.9795C53.304 79.8994 55.4292 79.5856 57.4704 79.0625L57.4592 79.0743C63.4199 77.5485 68.6639 74.2377 72.5912 69.7442C72.5896 69.7446 72.588 69.745 72.5863 69.7454C75.625 66.2724 77.8756 62.0923 79.0589 57.4842ZM79.0589 57.4842C76.5312 56.3871 74.4415 56.1973 72.0867 55.9833C70.8314 55.8693 69.5008 55.7484 67.9883 55.4796C67.7255 55.4326 67.4733 55.3822 67.2293 55.3288C68.9138 56.4252 70.5589 57.2371 72.1654 57.7638C67.7284 57.1502 64.6581 55.0942 62.9366 53.5824C62.1097 52.9929 61.6064 52.3805 61.285 51.8672L61.2839 51.866C61.0647 51.5163 60.9285 51.2121 60.8302 50.9924C60.7808 50.8822 60.741 50.7932 60.705 50.7303C60.5924 50.5321 60.3971 50.3367 60.166 50.1461C58.4909 49.5577 57.105 48.4226 56.0088 46.7419C56.7009 47.5157 57.4915 48.1586 58.3801 48.6713C58.2663 48.422 58.2466 48.1418 58.227 47.8624C58.2092 47.6074 58.1913 47.353 58.102 47.1232C57.9437 46.7132 57.3601 45.8157 56.3507 44.4307L55.6856 44.5621C56.7924 43.8939 57.2903 43.3067 57.1801 42.8011C57.0974 42.4221 56.2135 41.8959 55.349 41.4636H55.3484L55.3478 41.463C55.3097 41.4448 54.7525 41.1791 54.0534 40.8664C53.8856 40.7943 53.7478 40.7374 53.641 40.6945L53.6387 40.6834C52.8311 40.3303 51.9413 39.9677 51.454 39.8545C52.1003 39.9396 52.7818 40.0616 53.4974 40.2194C52.8674 38.5821 51.0259 37.5929 49.9745 37.0281C49.6682 36.8635 49.4289 36.735 49.3062 36.6369C48.9882 36.3843 48.4386 36.4885 47.8911 36.5923C47.6478 36.6385 47.4049 36.6845 47.183 36.6991C47.3994 36.8563 47.6188 36.9901 47.8405 37.1004C46.8944 36.9496 46.173 36.5149 45.6774 35.7975C45.4377 35.5439 45.1844 35.2613 44.9399 34.9884C44.3429 34.3223 43.7984 33.7146 43.6311 33.7309C43.3988 33.752 43.1372 34.0969 42.8469 34.7651C42.8375 34.7747 42.8278 34.7846 42.8177 34.7948C42.5802 35.0342 42.1783 35.4395 43.2141 37.1326C43.9325 38.3088 44.1537 39.1318 43.8762 39.6017C43.466 39.8062 43.3034 39.6289 43.0184 39.3181C42.8219 39.1037 42.567 38.8258 42.1325 38.5657C41.4229 38.1404 40.8422 38.4766 40.3906 39.5741C40.0968 39.3207 40.5185 39.6932 41.6551 40.6922C42.2182 41.1867 42.668 41.6924 43.0246 42.1951C43.0434 42.2209 43.0692 42.2579 43.1015 42.306C43.1595 42.391 43.2152 42.4761 43.268 42.5612C43.8117 43.42 45.0545 45.6514 44.8023 47.731C44.7367 46.8364 44.5402 45.9747 44.2135 45.1452C44.3116 45.929 44.2247 47.0052 44.1543 47.877C44.1068 48.4648 44.0669 48.9596 44.0962 49.2092C44.1407 49.5841 44.5428 49.7608 44.9245 49.9285C45.182 50.0417 45.4302 50.1508 45.5531 50.3138C45.7566 50.5831 45.7531 51.0371 45.5431 51.6765L47.973 50.2874C45.749 51.9734 44.6622 53.0439 44.7138 53.4986C44.7396 53.7279 44.9015 53.9878 45.1056 54.2312C45.1057 54.2313 45.1068 54.232 45.1089 54.2332C45.1943 54.284 46.915 55.3066 47.3578 56.2134C46.9977 55.8233 46.5707 55.4831 46.0768 55.1927C46.1689 56.119 46.6657 56.888 47.566 57.4999L47.8 59.1887L49.0405 59.5929C49.1047 60.679 49.5147 61.2165 49.9861 61.8345C50.2589 62.1922 50.5523 62.5767 50.8111 63.1102C51.1578 61.9687 51.6563 61.0618 52.3067 60.3889C51.5144 61.5011 51.2856 63.2293 51.2411 64.5668C51.3009 65.1006 51.3155 65.7682 51.2927 66.5132V66.5143C51.2064 69.4122 50.5883 73.4739 50.1331 75.3405C50.7355 74.4195 51.1466 73.4123 51.3672 72.3195C51.0129 75.3018 49.9971 76.7109 49.2029 77.369C48.8469 77.7562 48.4985 77.9439 48.1572 77.931C47.5255 77.6928 46.9824 77.6641 46.5279 77.8442C46.0906 78.0176 45.5173 78.9589 45.1627 79.612C39.9373 78.765 35.1644 76.5681 31.2135 73.3908L42.1595 70.7679L28.6473 71.0728C24.9196 67.2959 22.1866 62.5349 20.8732 57.2146L39.5578 52.7371L20.0383 51.5299C20.0129 51.024 20 50.5148 20 50.0026C20.0005 44.0155 21.7553 38.4395 24.7765 33.7573L47.3484 28.3487L28.8094 28.7664C34.2369 23.3501 41.7279 20 50.0006 20C50.5355 20 51.0672 20.014 51.5953 20.0417C60.7449 20.5213 68.8072 25.1033 73.983 31.981L74.6569 33.349L67.0979 35.9817L76.4152 35.7717C78.702 40.007 80 44.8542 80 50.0053C80 52.5876 79.6733 55.0942 79.0598 57.4846C79.0595 57.4845 79.0592 57.4843 79.0589 57.4842ZM72.5863 69.7454C72.3531 69.8022 72.0848 69.8739 71.7858 69.9537C69.9242 70.4507 66.875 71.2647 63.7149 70.789C62.8106 70.6376 60.7284 70.132 58.6845 68.5211C59.19 69.1506 59.8182 69.7008 60.5683 70.1719C60.2792 70.6376 59.6845 71.6537 59.2933 72.7008C59.3325 72.0432 59.4229 71.4126 59.5648 70.8095C58.8985 72.2162 58.6968 73.9767 58.9601 76.0914C58.9842 76.8364 58.9683 77.3485 58.7103 77.7486L57.4704 79.0625C63.4229 77.5369 68.6619 74.2308 72.5863 69.7454ZM51.1192 79.9795L51.1372 79.7214C51.0196 79.7627 50.8931 79.8522 50.7581 79.9906C50.8786 79.9876 50.999 79.9839 51.1192 79.9795ZM55.6651 75.0079C55.6974 73.9045 55.671 72.6931 55.5859 71.3733C54.9249 72.0684 54.3994 73.0762 54.0117 74.0629C54.1759 73.1906 54.4106 72.3253 54.7161 71.4683C53.2352 73.715 53.1513 77.2224 53.1513 77.2482C52.998 77.7188 52.5167 78.0843 52.1057 78.3964C51.8609 78.5823 51.641 78.7493 51.5302 78.9083C51.3144 79.218 51.2493 79.4568 51.3349 79.6246C51.5595 79.3148 51.8076 79.0028 52.0774 78.6889C52.4833 78.219 53.1613 78.266 53.451 78.4648C53.6446 78.5974 53.9302 78.6179 54.3085 78.5258C54.6364 78.2319 54.9589 77.8037 55.2762 77.2406C55.2457 77.6946 55.1976 78.1504 55.1308 78.6068C55.5296 77.6606 55.7073 76.461 55.6651 75.0079Z" fill="#F6F6F6"/>
    <defs>
        <linearGradient id="paint0_linear_28_65" x1="50" y1="0" x2="50" y2="100" gradientUnits="userSpaceOnUse">
            <stop stop-color="#3EB2E9"/>
            <stop offset="0.479167" stop-color="#3EB2E9" stop-opacity="0.5"/>
            <stop offset="1" stop-color="#3EB2E9"/>
        </linearGradient>
        <linearGradient id="paint1_linear_28_65" x1="49.9998" y1="20.0003" x2="49.9998" y2="80.0002" gradientUnits="userSpaceOnUse">
            <stop stop-color="#3EB2E9"/>
            <stop offset="0.5" stop-color="#3EB2E9" stop-opacity="0.5"/>
            <stop offset="1" stop-color="#3EB2E9"/>
        </linearGradient>
    </defs>
</svg>
